<?xml version="1.0" encoding="UTF-8"?>
<svg width="1245px" height="651px" viewBox="0 0 1245 651" version="1.1" xmlns="http://www.w3.org/2000/svg" xmlns:xlink="http://www.w3.org/1999/xlink">
    <!-- Generator: Sketch 3.7 (28169) - http://www.bohemiancoding.com/sketch -->
    <title>лого</title>
    <desc>Created with Sketch.</desc>
    <defs>
        <linearGradient x1="86.5463103%" y1="26.0194935%" x2="15.2069247%" y2="70.5006212%" id="linearGradient-1">
            <stop stop-color="#BD4244" offset="0%"></stop>
            <stop stop-color="#3F0000" offset="100%"></stop>
        </linearGradient>
    </defs>
    <g id="Page-2" stroke="none" stroke-width="1" fill="none" fill-rule="evenodd">
        <g id="лого" transform="translate(0.000000, -272.000000)">
            <path d="M0.67910286,655.249047 C0.67910286,516.571704 114.338235,605.967033 130.300619,598.358006 C146.263002,590.748979 51.3402465,529.107392 170.074983,493.434395 C209.394661,481.62108 407.626852,547.215602 548.800027,483.237143 C689.973202,419.258683 740.972708,361.371768 849.029384,309.280119 C957.08606,257.188469 1030.20337,268.660882 1093.67273,296.559932 C1157.14209,324.458981 1216.27698,391.610204 1201.35132,475.31249 C1186.42566,559.014775 1099.37371,581.453478 1106.01455,598.357995 C1116.10946,624.054984 1244.77359,534.693616 1244.77355,655.249047 C1244.77352,735.873671 1154.27204,828.422452 1094.31958,880.885885 C1064.62704,906.869352 1042.42789,923.020262 1042.42789,923.020262 C1042.42789,923.020262 1143.2587,812.017768 1042.42791,812.017768 L197.654387,812.017768 C103.83211,812.017768 197.65438,923.020262 197.65438,923.020262 C197.65438,923.020262 0.67910286,742.790607 0.67910286,655.249047 Z" id="Rectangle-39" fill="url(#linearGradient-1)"></path>
            <path d="M708.996415,347.515453 C728.460095,299.847386 771.488837,197.174592 866.429944,157.903432 C917.52261,136.769612 1010.02387,121.227524 1049.21098,205.195036 C1088.39808,289.162548 1010.31646,411.764776 966.446273,466.503185 C925.604756,517.462619 865.868727,567.238895 755.467463,648.348315 C581.844638,775.905247 330.725422,874.74412 330.725422,874.74412 C330.725422,874.74412 585.793981,734.606516 755.467463,586.558273 C885.96711,472.691078 955.539875,333.664439 911.487629,280.336673 C815.717995,164.402047 689.532734,395.18352 708.996415,347.515453 Z" id="Rectangle-39" fill="#FFFBE1" transform="translate(695.305961, 507.967993) rotate(34.000000) translate(-695.305961, -507.967993) "></path>
        </g>
    </g>
</svg>